<?xml version="1.0" standalone="no"?>
<!DOCTYPE svg PUBLIC "-//W3C//DTD SVG 20010904//EN"
 "http://www.w3.org/TR/2001/REC-SVG-20010904/DTD/svg10.dtd">
<svg version="1.0" xmlns="http://www.w3.org/2000/svg"
 width="512.000000pt" height="512.000000pt" viewBox="0 0 512.000000 512.000000"
 preserveAspectRatio="xMidYMid meet">
<metadata>
Created by potrace 1.14, written by Peter Selinger 2001-2017
</metadata>
<g transform="translate(0.000000,512.000000) scale(0.100000,-0.100000)"
fill="#000000" stroke="none">
<path d="M2175 5113 c-16 -2 -65 -13 -107 -23 -412 -101 -714 -431 -783 -855
-4 -22 -9 -107 -10 -190 -2 -82 -4 -154 -4 -160 -1 -6 -38 -10 -91 -10 l-90 0
0 298 c0 282 -1 298 -20 317 -47 47 -118 27 -130 -36 -3 -16 -5 -151 -5 -301
l1 -272 -42 -11 c-55 -16 -112 -64 -135 -114 -15 -34 -18 -63 -16 -181 2 -133
3 -142 29 -178 14 -22 43 -51 65 -65 38 -27 40 -27 236 -30 143 -2 197 -6 198
-15 0 -7 2 -61 3 -122 3 -124 21 -199 69 -290 44 -83 155 -192 237 -232 113
-56 171 -65 401 -66 l206 -1 1 -263 c1 -261 1 -263 -21 -275 -12 -6 -24 -10
-27 -9 -22 11 -258 -50 -385 -100 -109 -41 -252 -117 -291 -155 -18 -16 -35
-42 -38 -57 -3 -15 -8 -37 -11 -50 l-4 -22 -228 0 c-223 -1 -229 -1 -283 -26
-189 -88 -232 -329 -84 -471 21 -21 42 -38 47 -38 4 0 6 -30 3 -67 -4 -38 -8
-97 -11 -133 -3 -36 -7 -92 -10 -125 -3 -33 -7 -96 -10 -140 -3 -44 -7 -98
-10 -120 -2 -22 -7 -83 -10 -135 -4 -52 -9 -111 -10 -130 -2 -19 -7 -78 -10
-131 -10 -133 -15 -129 180 -129 186 0 180 -4 190 140 3 52 8 115 10 140 2 25
7 86 10 135 3 50 8 101 10 115 2 14 7 72 10 130 4 58 8 121 10 140 2 19 6 80
10 135 4 55 8 107 11 115 3 12 22 15 86 16 87 0 98 -4 98 -46 0 -54 58 -107
200 -181 90 -47 198 -155 237 -239 47 -101 55 -153 57 -369 1 -152 4 -202 15
-214 12 -16 69 -17 631 -17 580 0 618 1 633 18 14 15 16 49 17 226 2 226 8
262 62 371 40 77 135 172 223 220 165 89 195 117 210 196 l7 36 84 -1 c66 -1
85 -4 88 -16 3 -8 7 -60 11 -115 3 -55 8 -118 10 -140 2 -22 7 -80 10 -130 4
-49 8 -106 10 -125 2 -19 7 -78 10 -130 3 -52 8 -111 10 -130 2 -19 7 -78 10
-130 4 -52 12 -106 18 -120 12 -25 13 -25 169 -28 198 -3 192 -7 183 127 -3
53 -8 114 -10 136 -2 22 -7 81 -10 130 -3 50 -8 108 -10 130 -3 22 -7 74 -10
115 -2 41 -7 107 -10 145 -3 39 -8 97 -10 130 -3 33 -7 90 -11 128 -3 37 -2
67 3 67 14 0 73 61 98 100 87 140 24 337 -131 412 -46 22 -61 23 -274 25 -124
1 -230 2 -236 2 -6 1 -11 9 -11 19 0 51 -7 66 -47 106 -98 94 -428 223 -671
262 -22 3 -42 7 -45 9 -3 2 -6 122 -5 267 l0 263 205 1 c218 1 242 4 328 34
186 66 339 243 369 429 4 25 8 49 9 54 1 4 2 52 3 107 l1 100 176 0 c192 0
233 7 282 50 56 48 72 99 72 230 0 63 -5 132 -10 152 -19 66 -95 135 -154 140
-14 1 -27 5 -27 8 -1 3 -2 137 -3 298 -2 275 -4 294 -22 312 -33 33 -75 35
-107 6 l-27 -25 0 -296 c0 -274 -1 -295 -17 -296 -10 -1 -51 -2 -90 -3 l-73
-1 -1 130 c-1 72 -1 133 -1 137 3 20 -31 195 -49 254 -93 303 -348 565 -649
668 -145 50 -206 55 -590 54 -195 -1 -368 -3 -385 -5z"/>
</g>
</svg>
